<svg xmlns="http://www.w3.org/2000/svg" xmlns:xlink="http://www.w3.org/1999/xlink" width="1940" zoomAndPan="magnify" viewBox="0 0 1455 675.000002" height="900" preserveAspectRatio="xMidYMid meet" version="1.0"><defs><clipPath id="242cca8f39"><path d="M 1.078125 0 L 1453.921875 0 L 1453.921875 674 L 1.078125 674 Z M 1.078125 0 " clip-rule="nonzero"/></clipPath><clipPath id="fbd1e20db2"><path d="M 1.078125 0 L 1453.921875 0 L 1453.921875 613 L 1.078125 613 Z M 1.078125 0 " clip-rule="nonzero"/></clipPath><clipPath id="48482901ca"><path d="M -345.078125 -213.84375 L 1595.34375 -424.878906 L 1695.390625 495.023438 L -245.03125 706.0625 Z M -345.078125 -213.84375 " clip-rule="nonzero"/></clipPath><clipPath id="9971ae24ec"><path d="M 623.945312 -319.230469 C 88.769531 -261.027344 -322.683594 -7.914062 -295.054688 246.109375 C -267.425781 500.132812 188.816406 658.878906 723.992188 600.671875 C 1259.167969 542.46875 1670.617188 289.355469 1642.992188 35.332031 C 1615.363281 -218.695312 1159.121094 -377.4375 623.945312 -319.230469 Z M 623.945312 -319.230469 " clip-rule="nonzero"/></clipPath><clipPath id="9634d3980a"><path d="M 0.078125 0 L 1452.921875 0 L 1452.921875 613 L 0.078125 613 Z M 0.078125 0 " clip-rule="nonzero"/></clipPath><clipPath id="1f7e92822f"><path d="M -346.078125 -213.84375 L 1594.34375 -424.878906 L 1694.390625 495.023438 L -246.03125 706.0625 Z M -346.078125 -213.84375 " clip-rule="nonzero"/></clipPath><clipPath id="5fe1391d9b"><path d="M 622.945312 -319.230469 C 87.769531 -261.027344 -323.683594 -7.914062 -296.054688 246.109375 C -268.425781 500.132812 187.816406 658.878906 722.992188 600.671875 C 1258.167969 542.46875 1669.617188 289.355469 1641.992188 35.332031 C 1614.363281 -218.695312 1158.121094 -377.4375 622.945312 -319.230469 Z M 622.945312 -319.230469 " clip-rule="nonzero"/></clipPath><clipPath id="bc33eb4636"><rect x="0" width="1453" y="0" height="613"/></clipPath></defs><g clip-path="url(#242cca8f39)"><path fill="#ffffff" d="M 1.078125 0 L 1453.921875 0 L 1453.921875 674 L 1.078125 674 Z M 1.078125 0 " fill-opacity="1" fill-rule="nonzero"/><path fill="#5e0aa1" d="M 1.078125 0 L 1453.921875 0 L 1453.921875 674 L 1.078125 674 Z M 1.078125 0 " fill-opacity="1" fill-rule="nonzero"/></g><g clip-path="url(#fbd1e20db2)"><g clip-path="url(#48482901ca)"><g clip-path="url(#9971ae24ec)"><g transform="matrix(1, 0, 0, 1, 1, -0.000000000000005375)"><g clip-path="url(#bc33eb4636)"><g clip-path="url(#9634d3980a)"><g clip-path="url(#1f7e92822f)"><g clip-path="url(#5fe1391d9b)"><path fill="#ffffff" d="M -346.078125 -213.84375 L 1590.75 -424.488281 L 1690.796875 495.414062 L -246.03125 706.0625 Z M -346.078125 -213.84375 " fill-opacity="1" fill-rule="nonzero"/></g></g></g></g></g></g></g></g></svg>